<?xml version="1.0" encoding="utf-8"?>
<!-- Generator: Adobe Illustrator 16.0.0, SVG Export Plug-In . SVG Version: 6.00 Build 0)  -->
<!DOCTYPE svg PUBLIC "-//W3C//DTD SVG 1.1//EN" "http://www.w3.org/Graphics/SVG/1.1/DTD/svg11.dtd">
<svg version="1.1" id="Layer_1" xmlns="http://www.w3.org/2000/svg" xmlns:xlink="http://www.w3.org/1999/xlink" x="0px" y="0px"
	 width="290px" height="44px" viewBox="0 0 290 44" enable-background="new 0 0 290 44" xml:space="preserve">
<path fill="#3C2415" d="M287.126,19.195c0.244-1.074,0.385-2.187,0.385-3.335c0-8.22-6.593-14.883-14.728-14.883
	c-7.738,0-14.071,6.037-14.667,13.704c-1.729-0.722-3.624-1.125-5.612-1.125c-0.017,0-0.033,0.003-0.051,0.003
	c-0.516-7.747-6.879-13.874-14.675-13.874c-6.462,0-11.938,4.212-13.92,10.062c-2.226-5.365-7.47-9.135-13.587-9.135
	c-7.738,0-14.07,6.037-14.667,13.704c-1.729-0.722-3.623-1.125-5.612-1.125c-0.017,0-0.033,0.003-0.051,0.003
	c-0.516-7.747-6.879-13.874-14.674-13.874c-7.798,0-14.16,6.127-14.675,13.874c-0.018,0-0.035-0.003-0.053-0.003
	c-0.017,0-0.033,0.003-0.051,0.003C159.974,5.447,153.61-0.68,145.814-0.68c-7.876,0-14.29,6.254-14.688,14.116
	c-0.843-0.152-1.707-0.245-2.592-0.245c-0.017,0-0.033,0.003-0.05,0.003c-0.516-7.747-6.88-13.874-14.676-13.874
	c-7.911,0-14.346,6.309-14.692,14.218c-1.013-0.223-2.062-0.348-3.14-0.348c-0.017,0-0.033,0.003-0.05,0.003
	C95.409,5.447,89.045-0.68,81.249-0.68c-7.796,0-14.16,6.127-14.676,13.874c-0.017,0-0.034-0.003-0.051-0.003
	c-0.065,0-0.128,0.009-0.192,0.01C65.236,6.073,59.156,0.612,51.796,0.612c-7.432,0-13.56,5.568-14.565,12.8
	c-0.794-0.134-1.605-0.221-2.438-0.221c-0.092,0-0.18,0.012-0.271,0.014C33.429,6.076,27.348,0.612,19.987,0.612
	c-8.133,0-14.726,6.663-14.726,14.883c0,0.459,0.028,0.912,0.068,1.36c-3.1,2.729-5.069,6.737-5.069,11.219
	c0,8.219,6.592,14.882,14.726,14.882c3.819,0,7.287-1.482,9.904-3.892c2.617,2.409,6.084,3.892,9.903,3.892
	c7.432,0,13.562-5.569,14.566-12.799c0.794,0.133,1.605,0.22,2.438,0.22c0.065,0,0.128-0.009,0.193-0.01
	c1.094,7.127,7.174,12.589,14.533,12.589c7.796,0,14.161-6.127,14.676-13.874c0.017,0,0.033,0.003,0.05,0.003
	s0.034-0.003,0.051-0.003c0.515,7.747,6.88,13.874,14.675,13.874c7.912,0,14.347-6.31,14.693-14.218
	c1.012,0.222,2.061,0.347,3.139,0.347c0.017,0,0.034-0.003,0.051-0.003c0.515,7.747,6.88,13.874,14.676,13.874
	c7.877,0,14.291-6.256,14.688-14.116c0.843,0.152,1.706,0.245,2.592,0.245c0.017,0,0.034-0.003,0.051-0.003
	c0.515,7.747,6.879,13.874,14.675,13.874c7.797,0,14.162-6.127,14.677-13.874c0.018,0,0.034,0.003,0.051,0.003
	s0.033-0.003,0.051-0.003c0.515,7.747,6.877,13.874,14.674,13.874c7.739,0,14.071-6.037,14.667-13.704
	c0.57,0.237,1.163,0.43,1.769,0.595c0.74,7.519,7.015,13.392,14.65,13.392c7.819,0,14.198-6.165,14.679-13.944
	c0.662,0.092,1.334,0.156,2.021,0.156c0.017,0,0.033-0.003,0.051-0.003c0.515,7.747,6.878,13.874,14.675,13.874
	c4.685,0,8.85-2.219,11.546-5.663c2.699,3.398,6.837,5.579,11.483,5.579c8.135,0,14.728-6.663,14.728-14.882
	C290.261,24.896,289.084,21.722,287.126,19.195z"/>
<g>
</g>
<g>
</g>
<g>
</g>
<g>
</g>
<g>
</g>
<g>
</g>
</svg>
